<?xml version="1.0" encoding="UTF-8"?>
<svg width="57px" height="39px" viewBox="0 0 57 39" version="1.1" xmlns="http://www.w3.org/2000/svg" xmlns:xlink="http://www.w3.org/1999/xlink">
    <!-- Generator: Sketch 47.1 (45422) - http://www.bohemiancoding.com/sketch -->
    <title>email_checked</title>
    <desc>Created with Sketch.</desc>
    <defs></defs>
    <g id="Landing_Pages" stroke="none" stroke-width="1" fill="none" fill-rule="evenodd">
        <g id="YourWork_coming-soon-_stap-2" transform="translate(-612.000000, -548.000000)" fill-rule="nonzero" fill="#39B320">
            <path d="M645.815918,548 C645.589783,548 645.363648,548.084279 645.189697,548.259859 C644.838318,548.614532 644.838318,549.179903 645.189697,549.534576 L646.445618,550.802269 C646.619568,550.97785 646.849182,551.069151 647.078797,551.069151 C647.304932,551.069151 647.534546,550.97785 647.708496,550.802269 C648.056397,550.451107 648.056397,549.885737 647.708496,549.534576 L646.445618,548.259859 C646.271668,548.084279 646.045533,548 645.815918,548 Z M642.670899,551.178012 C642.441285,551.178012 642.215149,551.26229 642.041199,551.437871 C641.68982,551.792545 641.68982,552.357914 642.041199,552.712587 L643.297119,553.98028 C643.47107,554.155862 643.700684,554.243652 643.926819,554.243652 C644.156433,554.243652 644.386047,554.155862 644.559998,553.98028 C644.907898,553.629119 644.907898,553.063749 644.559998,552.712587 L643.297119,551.437871 C643.12317,551.26229 642.897034,551.178012 642.670899,551.178012 Z M650.296875,552.839006 C650.07074,552.839006 649.841125,552.926796 649.667176,553.102377 L625.359375,577.638034 L617.082824,569.283901 C616.734924,568.932739 616.171326,568.932739 615.823426,569.283901 L612.260925,572.879795 C611.913025,573.230956 611.913025,573.799838 612.260925,574.150999 L624.729676,586.736629 C624.903625,586.91221 625.129761,587 625.359375,587 C625.58899,587 625.815125,586.91221 625.989075,586.736629 L632.484375,580.180443 L638.979676,586.736629 C639.153625,586.91221 639.379761,587 639.609375,587 C639.83899,587 640.065125,586.91221 640.239075,586.736629 L668.739075,557.969475 C669.086975,557.618314 669.086975,557.049433 668.739075,556.698271 L665.176575,553.102377 C664.828674,552.751215 664.265076,552.751215 663.917176,553.102377 L639.609375,577.638034 L637.306275,575.313344 L654.489075,557.969475 C654.836975,557.618314 654.836975,557.049433 654.489075,556.698271 L650.926575,553.102377 C650.752625,552.926796 650.52301,552.839006 650.296875,552.839006 Z M639.518921,554.356023 C639.292786,554.356023 639.063172,554.443814 638.889221,554.619395 C638.541321,554.970556 638.541321,555.539438 638.889221,555.890599 L640.148621,557.161804 C640.322571,557.337385 640.548707,557.425176 640.77832,557.425176 C641.007935,557.425176 641.23407,557.337385 641.40802,557.161804 C641.75592,556.810643 641.75592,556.241761 641.40802,555.890599 L640.148621,554.619395 C639.97467,554.443814 639.745056,554.356023 639.518921,554.356023 Z M650.296875,555.009184 L652.599976,557.333873 L625.359375,584.829822 L614.150025,573.515397 L616.453125,571.190708 L624.729676,579.54484 C625.077576,579.896002 625.641174,579.896002 625.989075,579.54484 L650.296875,555.009184 Z M664.546875,555.009184 L666.849976,557.333873 L639.609375,584.829822 L633.743775,578.909238 L636.046875,576.584549 L638.979676,579.54484 C639.327576,579.896002 639.891174,579.896002 640.239075,579.54484 L664.546875,555.009184 Z M636.370422,557.534035 C636.144287,557.534035 635.914673,557.621826 635.740723,557.797406 C635.392822,558.148568 635.392822,558.71745 635.740723,559.068612 L637.000123,560.339816 C637.174072,560.515397 637.400207,560.603187 637.629822,560.603187 C637.859436,560.603187 638.085572,560.515397 638.259522,560.339816 C638.607422,559.988654 638.607422,559.419773 638.259522,559.068612 L637.000123,557.797406 C636.826172,557.621826 636.596558,557.534035 636.370422,557.534035 Z M633.221924,560.712048 C632.995789,560.712048 632.766174,560.799838 632.592224,560.975418 C632.244324,561.32658 632.244324,561.895462 632.592224,562.246623 L633.851623,563.517828 C634.025574,563.693409 634.251709,563.781199 634.481324,563.781199 C634.710938,563.781199 634.937073,563.693409 635.111023,563.517828 C635.458924,563.166666 635.458924,562.597785 635.111023,562.246623 L633.851623,560.975418 C633.677674,560.799838 633.448059,560.712048 633.221924,560.712048 Z M630.073426,563.890059 C629.847291,563.890059 629.617676,563.97785 629.443726,564.153431 C629.095826,564.504592 629.095826,565.073474 629.443726,565.424635 L630.703125,566.69584 C630.877076,566.871421 631.103211,566.959211 631.332825,566.959211 C631.562439,566.959211 631.788574,566.871421 631.962525,566.69584 C632.310425,566.344679 632.310425,565.775797 631.962525,565.424635 L630.703125,564.153431 C630.529175,563.97785 630.299561,563.890059 630.073426,563.890059 Z M626.924927,567.068071 C626.698791,567.068071 626.469178,567.155861 626.295227,567.331442 C625.947326,567.682604 625.947326,568.251485 626.295227,568.602647 L627.554627,569.873852 C627.728576,570.049432 627.954712,570.137223 628.184326,570.137223 C628.413941,570.137223 628.640076,570.049432 628.814026,569.873852 C629.161926,569.52269 629.161926,568.953808 628.814026,568.602647 L627.554627,567.331442 C627.380676,567.155861 627.151062,567.068071 626.924927,567.068071 Z M623.776428,570.246083 C623.550293,570.246083 623.320679,570.333874 623.146729,570.509454 C622.798828,570.860616 622.798828,571.429498 623.146729,571.780659 L624.406128,573.051864 C624.580078,573.227445 624.806213,573.315235 625.035828,573.315235 C625.265442,573.315235 625.491578,573.227445 625.665527,573.051864 C626.013428,572.700702 626.013428,572.131821 625.665527,571.780659 L624.406128,570.509454 C624.232178,570.333874 624.002564,570.246083 623.776428,570.246083 Z" id="email_checked"></path>
        </g>
    </g>
</svg>