<?xml version="1.0" encoding="UTF-8"?>
<svg width="202px" height="132px" viewBox="0 0 202 132" version="1.1" xmlns="http://www.w3.org/2000/svg" xmlns:xlink="http://www.w3.org/1999/xlink">
    <!-- Generator: Sketch 47.1 (45422) - http://www.bohemiancoding.com/sketch -->
    <title>Coming_Soon_icon</title>
    <desc>Created with Sketch.</desc>
    <defs>
        <rect id="path-1" x="0" y="0" width="177" height="115" rx="7"></rect>
        <rect id="path-2" x="0" y="9" width="37" height="33" rx="3"></rect>
        <path d="M7,0 L170,0 L170,0 C173.865993,-7.10171439e-16 177,3.13400675 177,7 L177,27 L0,27 L0,7 L1.77635684e-15,7 C1.30290921e-15,3.13400675 3.13400675,7.10171439e-16 7,0 Z" id="path-3"></path>
        <rect id="path-4" x="15.7293799" y="61.5249228" width="19.0749823" height="30.0251368"></rect>
        <rect id="path-5" x="13" y="68" width="24.2957569" height="50.0251368"></rect>
        <rect id="path-6" x="-6.29086775" y="22.7477157" width="63.1154777" height="19.0909091"></rect>
        <rect id="path-7" x="0" y="15" width="91" height="11"></rect>
    </defs>
    <g id="Landing_Pages" stroke="none" stroke-width="1" fill="none" fill-rule="evenodd">
        <g id="YourWork_coming-soon" transform="translate(-552.000000, -211.000000)">
            <g id="Coming_Soon_icon" transform="translate(552.000000, 211.000000)">
                <g id="Group-9">
                    <g id="Rectangle-15">
                        <use fill="#F3F5F7" fill-rule="evenodd" xlink:href="#path-1"></use>
                        <rect stroke="#172B44" stroke-width="2" x="1" y="1" width="175" height="113" rx="7"></rect>
                    </g>
                    <rect id="Rectangle-17" fill="#E6EAED" x="48" y="85" width="80" height="13" rx="6.5"></rect>
                    <rect id="Rectangle-17-Copy" fill="#E6EAED" x="69" y="102" width="37" height="6" rx="3"></rect>
                    <g id="Group-13" transform="translate(29.000000, 37.000000)">
                        <g id="Group-2">
                            <rect id="Rectangle-3" fill="#E6EAED" x="0" y="9" width="37" height="33" rx="3"></rect>
                            <circle id="Oval-2" fill="#AEB3B8" cx="19" cy="8" r="8"></circle>
                            <path d="M14.7913569,31.706787 L18.594757,24.6262656 L18.594757,24.6262656 C18.8561055,24.1397316 19.4623841,23.9571826 19.9489182,24.2185311 C20.1198086,24.3103273 20.2603108,24.4498456 20.3533056,24.6200867 L24.2210629,31.7006081 L24.2210629,31.7006081 C24.4858239,32.1852936 24.3075399,32.7928401 23.8228544,33.0576011 C23.6758323,33.1379124 23.5109895,33.1800003 23.3434622,33.1800003 L15.6723048,33.1800003 L15.6723048,33.1800003 C15.12002,33.1800003 14.6723048,32.7322851 14.6723048,32.1800003 C14.6723048,32.0148518 14.7132065,31.8522742 14.7913569,31.706787 Z" id="Path-4-Copy" fill="#AEB3B8" transform="translate(19.514593, 28.090000) rotate(-270.000000) translate(-19.514593, -28.090000) "></path>
                        </g>
                    </g>
                    <g id="Group-13-Copy-2" transform="translate(70.000000, 37.000000)">
                        <g id="Group-2">
                            <g id="Rectangle-3">
                                <use fill="#FFFFFF" fill-rule="evenodd" xlink:href="#path-2"></use>
                                <rect stroke="#172B44" stroke-width="2" x="1" y="10" width="35" height="31" rx="3"></rect>
                            </g>
                            <path d="M19.5,22 L14.3,22 C13.5839847,22 13,22.5839847 13,23.3 L13,33.7 C13,34.416016 13.5839847,35 14.3,35 L22.1,35 C22.816016,35 23.4,34.416016 23.4,33.7 L23.4,25.9 L19.5,22 Z M20.8,32.4 L15.6,32.4 L15.6,30.6455077 L16.8339847,29.7339847 L18.3294924,31.1 L19.4339847,30.5794924 L20.7339847,31.3589847 L20.7339847,32.4 L20.8,32.4 Z M19.825,29.8 C19.3044924,29.8 18.85,29.3455077 18.85,28.825 C18.85,28.3044924 19.3044924,27.85 19.825,27.85 C20.3455077,27.85 20.8,28.3044924 20.8,28.825 C20.8,29.3455077 20.3455077,29.8 19.825,29.8 Z M18.85,26.55 L18.85,22.975 L22.425,26.55 L18.85,26.55 Z" id="Shape" fill="#39B320" fill-rule="nonzero"></path>
                            <circle id="Oval-2" fill="#172B44" cx="19" cy="8" r="8"></circle>
                            <path d="M19,5 C18.2893417,5 17.7142857,5.57505596 17.7142857,6.28571429 C17.7142857,6.99637293 18.2893417,7.57142857 19,7.57142857 C19.7106586,7.57142857 20.2857143,6.99637293 20.2857143,6.28571429 C20.2857143,5.57505596 19.7106586,5 19,5 Z M19,8.42857143 C16.7119142,8.42857143 16,10.1428571 16,10.1428571 L16,11 L22,11 L22,10.1428571 C22,10.1428571 21.2880861,8.42857143 19,8.42857143 Z" id="Shape" fill="#506681" fill-rule="nonzero"></path>
                        </g>
                    </g>
                    <g id="Group-13-Copy-3" transform="translate(111.000000, 37.000000)">
                        <g id="Group-2">
                            <rect id="Rectangle-3" fill="#E6EAED" x="0" y="9" width="37" height="33" rx="3"></rect>
                            <circle id="Oval-2" fill="#AEB3B8" cx="19" cy="8" r="8"></circle>
                            <path d="M14.7913569,31.706787 L18.594757,24.6262656 L18.594757,24.6262656 C18.8561055,24.1397316 19.4623841,23.9571826 19.9489182,24.2185311 C20.1198086,24.3103273 20.2603108,24.4498456 20.3533056,24.6200867 L24.2210629,31.7006081 L24.2210629,31.7006081 C24.4858239,32.1852936 24.3075399,32.7928401 23.8228544,33.0576011 C23.6758323,33.1379124 23.5109895,33.1800003 23.3434622,33.1800003 L15.6723048,33.1800003 L15.6723048,33.1800003 C15.12002,33.1800003 14.6723048,32.7322851 14.6723048,32.1800003 C14.6723048,32.0148518 14.7132065,31.8522742 14.7913569,31.706787 Z" id="Path-4-Copy" fill="#AEB3B8" transform="translate(19.514593, 28.090000) rotate(-270.000000) translate(-19.514593, -28.090000) "></path>
                        </g>
                    </g>
                    <g id="Rectangle-15-Copy">
                        <use fill="#FFFFFF" fill-rule="evenodd" xlink:href="#path-3"></use>
                        <path stroke="#172B44" stroke-width="2" d="M1,26 L176,26 L176,7 C176,3.6862915 173.313708,1 170,1 L7,1 C3.6862915,1 1,3.6862915 1,7 L1,26 Z"></path>
                    </g>
                    <circle id="Oval-9" fill="#ECEFF3" cx="15.5" cy="13.5" r="4.5"></circle>
                    <circle id="Oval-9-Copy" fill="#ECEFF3" cx="28.5" cy="13.5" r="4.5"></circle>
                    <circle id="Oval-9-Copy-2" fill="#ECEFF3" cx="40.5" cy="13.5" r="4.5"></circle>
                    <g id="icons8-digger" transform="translate(43.500000, 104.000000) scale(-1, 1) translate(-43.500000, -104.000000) translate(9.000000, 76.000000)">
                        <path d="M46,0 C43.894531,0 42.167969,1.660156 42.027344,3.734375 L31.324219,14.433594 L31,14 C30.054688,12.742188 28.574219,12 27,12 L19,12 C17.355469,12 16,13.355469 16,15 L16,23 L6,23 C4.355469,23 3,24.355469 3,26 L3,36 C3,37.644531 4.355469,39 6,39 L11,39 L11,42 L7,42 C3.144531,42 0,45.144531 0,49 C0,52.855469 3.144531,56 7,56 L35,56 C38.855469,56 42,52.855469 42,49 C42,45.144531 38.855469,42 35,42 L31,42 L31,39 L36,39 C37.644531,39 39,37.644531 39,36 L39,26.332031 C39,25.25 38.648438,24.199219 38,23.332031 L34.964844,19.285156 L45.464844,8.785156 L57.0625,27.359375 C57.03125,27.570313 57,27.78125 57,28 C57,29 57.386719,29.910156 58,30.613281 L49.253906,40.328125 C48.992188,40.625 48.925781,41.046875 49.085938,41.40625 C49.246094,41.769531 49.605469,42 50,42 L61,42 C62.644531,42 64,40.644531 64,39 L64,30.609375 C64.613281,29.90625 65,29 65,28 C65,26.214844 63.804688,24.710938 62.183594,24.203125 L49.9375,4.640625 C49.972656,4.429688 50,4.21875 50,4 C50,1.800781 48.199219,0 46,0 Z" id="Shape" fill="#FFFFFF" fill-rule="nonzero"></path>
                        <polyline id="Path-18" fill="#39B320" transform="translate(56.385294, 36.362011) scale(-1, 1) translate(-56.385294, -36.362011) " points="49.7705874 31 49.7705874 39.1191234 50.2953765 41.1447171 52.757747 41.7240211 63 41.7240211 53.6349132 31 51.2871555 31"></polyline>
                        <rect id="Rectangle-5" fill="#AEB3B8" x="1" y="43" width="40" height="12" rx="6"></rect>
                        <polygon id="Path-2" fill="#F3F5F7" points="33.4376953 19.4196914 45.1953707 7.66056847 57.3439069 26.2525193 57.3439069 29.0295619 58.6424337 30.5365479 60.3665647 30.5365479 62.9013701 30.5365479 63.6763363 29.0295619 63.6763363 26.2525193 61.8725855 24.535144 59.5689189 21.9332649 48.5570158 4.89365924 48.5570158 2.30480887 46.8543581 0.801683258 44.4908559 0.801683258 43.0461182 2.30480887 42.5061511 4.35755248 30.996021 15.6691156"></polygon>
                        <path d="M46,0 C43.894531,0 42.167969,1.660156 42.027344,3.734375 L31.324219,14.433594 L31,14 C30.054688,12.742188 28.574219,12 27,12 L19,12 C17.355469,12 16,13.355469 16,15 L16,23 L6,23 C4.355469,23 3,24.355469 3,26 L3,36 C3,37.644531 4.355469,39 6,39 L11,39 L11,42 L7,42 C3.144531,42 0,45.144531 0,49 C0,52.855469 3.144531,56 7,56 L35,56 C38.855469,56 42,52.855469 42,49 C42,45.144531 38.855469,42 35,42 L31,42 L31,39 L36,39 C37.644531,39 39,37.644531 39,36 L39,26.332031 C39,25.25 38.648438,24.199219 38,23.332031 L34.964844,19.285156 L45.464844,8.785156 L57.0625,27.359375 C57.03125,27.570313 57,27.78125 57,28 C57,29 57.386719,29.910156 58,30.613281 L49.253906,40.328125 C48.992188,40.625 48.925781,41.046875 49.085938,41.40625 C49.246094,41.769531 49.605469,42 50,42 L61,42 C62.644531,42 64,40.644531 64,39 L64,30.609375 C64.613281,29.90625 65,29 65,28 C65,26.214844 63.804688,24.710938 62.183594,24.203125 L49.9375,4.640625 C49.972656,4.429688 50,4.21875 50,4 C50,1.800781 48.199219,0 46,0 Z M46,2 C47.117188,2 48,2.882813 48,4 C48,5.117188 47.117188,6 46,6 C44.882813,6 44,5.117188 44,4 C44,2.882813 44.882813,2 46,2 Z M42.5625,6.023438 C42.914063,6.601563 43.40625,7.089844 43.988281,7.433594 L33.75,17.671875 L32.535156,16.050781 L42.5625,6.023438 Z M48.890625,6.738281 L59.820313,24.199219 C59.160156,24.40625 58.574219,24.765625 58.109375,25.257813 L47.191406,7.785156 C47.847656,7.578125 48.429688,7.222656 48.890625,6.738281 Z M19,14 L27,14 C27.945313,14 28.832031,14.445313 29.402344,15.199219 L36.402344,24.53125 C36.789063,25.054688 37,25.683594 37,26.332031 L37,27 C36.449219,27 36,27.449219 36,28 C36,28.550781 36.449219,29 37,29 L37,36 C37,36.566406 36.566406,37 36,37 L29,37 C28.449219,37 28,37.449219 28,38 C28,38.550781 28.449219,39 29,39 L29,42 L13,42 L13,39 C13.550781,39 14,38.550781 14,38 C14,37.449219 13.550781,37 13,37 L6,37 C5.433594,37 5,36.566406 5,36 L5,26 C5,25.433594 5.433594,25 6,25 L17,25 C17,25.550781 17.449219,26 18,26 C18.550781,26 19,25.550781 19,25 C19,24.449219 18.550781,24 18,24 L18,15 C18,14.433594 18.433594,14 19,14 Z M61,26 C62.117188,26 63,26.882813 63,28 C63,28.378906 62.890625,28.730469 62.714844,29.03125 C62.390625,29.128906 62.136719,29.382813 62.042969,29.703125 C61.738281,29.890625 61.386719,30 61,30 C59.882813,30 59,29.117188 59,28 C59,26.882813 59.882813,26 61,26 Z M21,27 C20.449219,27 20,27.449219 20,28 C20,28.550781 20.449219,29 21,29 C21.550781,29 22,28.550781 22,28 C22,27.449219 21.550781,27 21,27 Z M25,27 C24.449219,27 24,27.449219 24,28 C24,28.550781 24.449219,29 25,29 C25.550781,29 26,28.550781 26,28 C26,27.449219 25.550781,27 25,27 Z M29,27 C28.449219,27 28,27.449219 28,28 C28,28.550781 28.449219,29 29,29 C29.550781,29 30,28.550781 30,28 C30,27.449219 29.550781,27 29,27 Z M33,27 C32.449219,27 32,27.449219 32,28 C32,28.550781 32.449219,29 33,29 C33.550781,29 34,28.550781 34,28 C34,27.449219 33.550781,27 33,27 Z M59.671875,31.753906 C60.089844,31.902344 60.53125,32 61,32 C61.347656,32 61.679688,31.941406 62,31.855469 L62,39 C62,39.566406 61.566406,40 61,40 L52.246094,40 L59.671875,31.753906 Z M17,37 C16.449219,37 16,37.449219 16,38 C16,38.550781 16.449219,39 17,39 C17.550781,39 18,38.550781 18,38 C18,37.449219 17.550781,37 17,37 Z M21,37 C20.449219,37 20,37.449219 20,38 C20,38.550781 20.449219,39 21,39 C21.550781,39 22,38.550781 22,38 C22,37.449219 21.550781,37 21,37 Z M25,37 C24.449219,37 24,37.449219 24,38 C24,38.550781 24.449219,39 25,39 C25.550781,39 26,38.550781 26,38 C26,37.449219 25.550781,37 25,37 Z M8,44 L10,44 C10,44.550781 10.449219,45 11,45 C11.550781,45 12,44.550781 12,44 L14,44 C14,44.550781 14.449219,45 15,45 C15.550781,45 16,44.550781 16,44 L18,44 C18,44.550781 18.449219,45 19,45 C19.550781,45 20,44.550781 20,44 L22,44 C22,44.550781 22.449219,45 23,45 C23.550781,45 24,44.550781 24,44 L26,44 C26,44.550781 26.449219,45 27,45 C27.550781,45 28,44.550781 28,44 L30,44 C30,44.550781 30.449219,45 31,45 C31.550781,45 32,44.550781 32,44 L34,44 C34,44.550781 34.449219,45 35,45 C35.511719,45 35.941406,44.609375 35.996094,44.097656 C36.636719,44.226563 37.234375,44.480469 37.761719,44.828125 C37.4375,45.226563 37.464844,45.804688 37.828125,46.171875 C38.191406,46.535156 38.773438,46.5625 39.171875,46.234375 C39.519531,46.765625 39.773438,47.359375 39.902344,48.003906 C39.390625,48.058594 39,48.488281 39,49 C39,49.511719 39.390625,49.941406 39.902344,49.996094 C39.773438,50.636719 39.511719,51.230469 39.160156,51.753906 C38.988281,51.617188 38.773438,51.539063 38.550781,51.535156 C38.28125,51.53125 38.019531,51.636719 37.828125,51.828125 C37.46875,52.1875 37.4375,52.765625 37.753906,53.160156 C37.230469,53.511719 36.636719,53.773438 35.996094,53.902344 C35.941406,53.390625 35.511719,53 35,53 C34.449219,53 34,53.449219 34,54 L32,54 C32,53.449219 31.550781,53 31,53 C30.449219,53 30,53.449219 30,54 L28,54 C28,53.449219 27.550781,53 27,53 C26.449219,53 26,53.449219 26,54 L24,54 C24,53.449219 23.550781,53 23,53 C22.449219,53 22,53.449219 22,54 L20,54 C20,53.449219 19.550781,53 19,53 C18.449219,53 18,53.449219 18,54 L16,54 C16,53.449219 15.550781,53 15,53 C14.449219,53 14,53.449219 14,54 L12,54 C12,53.449219 11.550781,53 11,53 C10.449219,53 10,53.449219 10,54 L8,54 C8,53.449219 7.550781,53 7,53 C6.488281,53 6.058594,53.390625 6.003906,53.902344 C5.359375,53.773438 4.765625,53.519531 4.234375,53.171875 C4.238281,53.167969 4.238281,53.167969 4.238281,53.167969 C4.5625,52.769531 4.535156,52.191406 4.171875,51.828125 C3.988281,51.644531 3.738281,51.539063 3.480469,51.535156 C3.242188,51.53125 3.011719,51.613281 2.828125,51.765625 C2.480469,51.234375 2.226563,50.640625 2.097656,49.996094 C2.609375,49.941406 3,49.511719 3,49 C3,48.488281 2.609375,48.058594 2.097656,48.003906 C2.226563,47.363281 2.480469,46.765625 2.828125,46.238281 C3.226563,46.5625 3.804688,46.535156 4.171875,46.171875 C4.53125,45.808594 4.5625,45.230469 4.234375,44.832031 C4.765625,44.484375 5.359375,44.226563 6.003906,44.097656 C6.058594,44.609375 6.488281,45 7,45 C7.550781,45 8,44.550781 8,44 Z M7,47 C5.894531,47 5,47.894531 5,49 C5,50.105469 5.894531,51 7,51 C8.105469,51 9,50.105469 9,49 C9,47.894531 8.105469,47 7,47 Z M21,47 C19.894531,47 19,47.894531 19,49 C19,50.105469 19.894531,51 21,51 C22.105469,51 23,50.105469 23,49 C23,47.894531 22.105469,47 21,47 Z M35,47 C33.894531,47 33,47.894531 33,49 C33,50.105469 33.894531,51 35,51 C36.105469,51 37,50.105469 37,49 C37,47.894531 36.105469,47 35,47 Z" id="Shape-Copy-4" fill="#172B44" fill-rule="nonzero"></path>
                        <g id="Group-8" transform="translate(60.000000, 51.500000) rotate(-180.000000) translate(-60.000000, -51.500000) translate(51.000000, 50.000000)" stroke="#172B44" stroke-width="2" stroke-linecap="round" stroke-linejoin="round">
                            <path d="M18,1.89414383 L13.5686753,1.89414383" id="Path-19"></path>
                            <path d="M6.60723157,2 L5.60723157,2" id="Path-19-Copy-9"></path>
                            <path d="M1.60723157,2 L0.607231573,2" id="Path-19-Copy-10"></path>
                        </g>
                    </g>
                    <g id="Group-4" transform="translate(156.000000, 72.000000) scale(-1, 1) translate(-156.000000, -72.000000) translate(110.000000, 11.000000)">
                        <g id="Group-3" transform="translate(35.000000, 15.000000)">
                            <g id="Rectangle-3-Copy-3" transform="translate(25.266871, 76.537491) rotate(-270.000000) translate(-25.266871, -76.537491) ">
                                <use fill="#AEB3B8" fill-rule="evenodd" xlink:href="#path-4"></use>
                                <rect stroke="#172B44" stroke-width="2" x="16.7293799" y="62.5249228" width="17.0749823" height="28.0251368"></rect>
                            </g>
                            <g id="Rectangle-3-Copy-4" transform="translate(25.147878, 93.012568) rotate(-270.000000) translate(-25.147878, -93.012568) ">
                                <use fill="#FFFFFF" fill-rule="evenodd" xlink:href="#path-5"></use>
                                <rect stroke="#172B44" stroke-width="2" x="14" y="69" width="22.2957569" height="48.0251368"></rect>
                            </g>
                            <g id="Group-7" transform="translate(10.000000, 87.000000)" stroke-width="2">
                                <path d="M1,12.9638973 L1,10" id="Path-19-Copy" stroke="#172B44"></path>
                                <path d="M5,12.9638973 L5,10" id="Path-19-Copy-2" stroke="#172B44"></path>
                                <path d="M9,12.9638973 L9,10" id="Path-19-Copy-3" stroke="#172B44"></path>
                                <path d="M13,12.9638973 L13,10" id="Path-19-Copy-4" stroke="#172B44"></path>
                                <path d="M17,12.9638973 L17,10" id="Path-19-Copy-5" stroke="#172B44"></path>
                                <path d="M21,12.9638973 L21,10" id="Path-19-Copy-6" stroke="#172B44"></path>
                                <path d="M25,12.9638973 L25,10" id="Path-19-Copy-7" stroke="#172B44"></path>
                                <path d="M29,12.9638973 L29,10" id="Path-19-Copy-8" stroke="#172B44"></path>
                                <path d="M1,2.96389729 L1,0" id="Path-19-Copy-19" stroke="#AEB3B8"></path>
                                <path d="M5,2.96389729 L5,0" id="Path-19-Copy-18" stroke="#AEB3B8"></path>
                                <path d="M9,2.96389729 L9,0" id="Path-19-Copy-17" stroke="#AEB3B8"></path>
                                <path d="M13,2.96389729 L13,0" id="Path-19-Copy-16" stroke="#AEB3B8"></path>
                                <path d="M17,2.96389729 L17,0" id="Path-19-Copy-15" stroke="#AEB3B8"></path>
                                <path d="M21,2.96389729 L21,0" id="Path-19-Copy-14" stroke="#AEB3B8"></path>
                                <path d="M25,2.96389729 L25,0" id="Path-19-Copy-13" stroke="#AEB3B8"></path>
                                <path d="M29,2.96389729 L29,0" id="Path-19-Copy-12" stroke="#AEB3B8"></path>
                            </g>
                            <rect id="Rectangle-3-Copy-6" fill="#ECEFF3" transform="translate(24.667266, 77.268746) rotate(-270.000000) translate(-24.667266, -77.268746) " x="22.9360115" y="69.7656623" width="3.46250883" height="15.0061666"></rect>
                            <g id="Rectangle-3-Copy-2" transform="translate(25.266871, 32.293170) rotate(-270.000000) translate(-25.266871, -32.293170) ">
                                <use fill="#FFFFFF" fill-rule="evenodd" xlink:href="#path-6"></use>
                                <rect stroke="#172B44" stroke-width="2" x="-5.29086775" y="23.7477157" width="61.1154777" height="17.0909091"></rect>
                            </g>
                            <rect id="Rectangle-4-Copy-10" stroke="#172B44" stroke-width="2" transform="translate(25.114375, 19.249179) rotate(-315.000000) translate(-25.114375, -19.249179) " x="19.3240527" y="13.551452" width="11.5806447" height="11.3954541"></rect>
                            <rect id="Rectangle-4-Copy-11" stroke="#172B44" stroke-width="2" transform="translate(25.248127, 36.562925) rotate(-315.000000) translate(-25.248127, -36.562925) " x="19.4578049" y="30.8651985" width="11.5806447" height="11.3954541"></rect>
                            <rect id="Rectangle-4-Copy-12" stroke="#172B44" stroke-width="2" transform="translate(25.248127, 53.744744) rotate(-315.000000) translate(-25.248127, -53.744744) " x="19.4578049" y="48.0470166" width="11.5806447" height="11.3954541"></rect>
                        </g>
                        <g id="Rectangle-3">
                            <use fill="#FFFFFF" fill-rule="evenodd" xlink:href="#path-7"></use>
                            <rect stroke="#172B44" stroke-width="2" x="1" y="16" width="89" height="9"></rect>
                        </g>
                        <rect id="Rectangle-4" stroke="#172B44" stroke-width="2" transform="translate(5.500000, 20.500000) rotate(-315.000000) translate(-5.500000, -20.500000) " x="3" y="18" width="5" height="5"></rect>
                        <rect id="Rectangle-4-Copy" stroke="#172B44" stroke-width="2" transform="translate(14.500000, 20.500000) rotate(-315.000000) translate(-14.500000, -20.500000) " x="12" y="18" width="5" height="5"></rect>
                        <rect id="Rectangle-4-Copy-3" stroke="#172B44" stroke-width="2" transform="translate(23.500000, 20.500000) rotate(-315.000000) translate(-23.500000, -20.500000) " x="21" y="18" width="5" height="5"></rect>
                        <rect id="Rectangle-4-Copy-2" stroke="#172B44" stroke-width="2" transform="translate(32.500000, 20.500000) rotate(-315.000000) translate(-32.500000, -20.500000) " x="30" y="18" width="5" height="5"></rect>
                        <rect id="Rectangle-4-Copy-5" stroke="#172B44" stroke-width="2" transform="translate(41.500000, 20.500000) rotate(-315.000000) translate(-41.500000, -20.500000) " x="39" y="18" width="5" height="5"></rect>
                        <rect id="Rectangle-4-Copy-4" stroke="#172B44" stroke-width="2" transform="translate(50.500000, 20.500000) rotate(-315.000000) translate(-50.500000, -20.500000) " x="48" y="18" width="5" height="5"></rect>
                        <rect id="Rectangle-4-Copy-7" stroke="#172B44" stroke-width="2" transform="translate(59.500000, 20.500000) rotate(-315.000000) translate(-59.500000, -20.500000) " x="57" y="18" width="5" height="5"></rect>
                        <rect id="Rectangle-4-Copy-6" stroke="#172B44" stroke-width="2" transform="translate(68.500000, 20.500000) rotate(-315.000000) translate(-68.500000, -20.500000) " x="66" y="18" width="5" height="5"></rect>
                        <rect id="Rectangle-4-Copy-9" stroke="#172B44" stroke-width="2" transform="translate(77.500000, 20.500000) rotate(-315.000000) translate(-77.500000, -20.500000) " x="75" y="18" width="5" height="5"></rect>
                        <rect id="Rectangle-4-Copy-8" stroke="#172B44" stroke-width="2" transform="translate(86.500000, 20.500000) rotate(-315.000000) translate(-86.500000, -20.500000) " x="84" y="18" width="5" height="5"></rect>
                        <polyline id="Path-7" stroke="#172B44" stroke-width="2" transform="translate(45.852665, 8.872289) scale(-1, 1) translate(-45.852665, -8.872289) " points="4.81812328 17.3623049 33.0827392 0.382272921 86.8872077 16.8348498"></polyline>
                        <path d="M14.5,23.9843902 L14.5,32" id="Path-11" stroke="#172B44" stroke-width="2"></path>
                        <path d="M17,33.5 L12,33.5" id="Path-11-Copy" stroke="#172B44" stroke-width="2"></path>
                        <path d="M14.5,35 L14.5,38.0694182" id="Path-12" stroke="#172B44" stroke-width="2"></path>
                        <path d="M16.5176996,43 C16.8227882,42.4929707 17,41.8880079 17,41.2383665 C17,39.4498661 15.6568542,38 14,38 C12.3431458,38 11,39.4498661 11,41.2383665" id="Oval-4" stroke="#172B44" stroke-width="2" transform="translate(14.000000, 40.500000) rotate(-120.000000) translate(-14.000000, -40.500000) "></path>
                    </g>
                </g>
            </g>
        </g>
    </g>
</svg>