<?xml version="1.0" encoding="utf-8"?>
<!-- Generator: Adobe Illustrator 19.0.0, SVG Export Plug-In . SVG Version: 6.00 Build 0)  -->
<svg version="1.1" id="Layer_1" xmlns="http://www.w3.org/2000/svg" xmlns:xlink="http://www.w3.org/1999/xlink" x="0px" y="0px"
	 viewBox="0 0 120 40" style="enable-background:new 0 0 120 40;" xml:space="preserve">
<style type="text/css">
	.st0{fill:#172B44;}
	.st1{fill:#39B320;}
</style>
<g id="XMLID_31_">
	<path id="XMLID_38_" class="st0" d="M12.6,15.4L12.6,15.4c0-0.1,0-0.2,0-0.3c0.1-0.1,0.1-0.3,0.3-0.3c0.1-0.2,0.3-0.3,0.4-0.4
		c0.2-0.2,0.4-0.3,0.8-0.3c0.4-0.1,0.7-0.2,1.1-0.2c0.7,0,1.3,0.4,1.8,1.3l1.9,3.3l2-3.3c0.5-0.9,1.1-1.3,1.8-1.3
		c0.4,0,0.6,0.1,1,0.2c0.3,0.1,0.5,0.2,0.7,0.3c0.2,0.1,0.4,0.3,0.4,0.4c0.1,0.2,0.2,0.3,0.3,0.3c0,0.1,0,0.1,0,0.2c0,0,0,0,0,0.1
		l-4.3,6.2v3.1c0,1.2-0.5,1.7-1.7,1.7h-0.5c-1.1,0-1.6-0.6-1.6-1.7v-3.1L12.6,15.4z M25.5,21.7c0-1.5,0.4-2.7,1.4-3.6
		c1-0.9,2.3-1.4,3.9-1.4c1.6,0,2.8,0.4,3.8,1.4c1,1,1.4,2.1,1.4,3.6c0,1.5-0.4,2.7-1.4,3.7c-1,0.9-2.2,1.4-3.8,1.4
		c-1.6,0-2.8-0.4-3.8-1.4C25.9,24.5,25.5,23.3,25.5,21.7z M28.6,21.7c0,0.6,0.2,1.1,0.6,1.6c0.4,0.4,0.9,0.6,1.5,0.6
		c0.6,0,1.1-0.2,1.5-0.6c0.4-0.4,0.6-1,0.6-1.6s-0.2-1.1-0.6-1.6c-0.4-0.4-0.9-0.6-1.5-0.6c-0.6,0-1.1,0.2-1.5,0.6
		C28.8,20.6,28.6,21.1,28.6,21.7z M37,23.1v-4.4c0-1.1,0.5-1.8,1.7-1.8H39c0.5,0,1,0.2,1.2,0.4c0.3,0.3,0.4,0.7,0.4,1.4v3.8
		c0,0.4,0.1,0.8,0.4,1c0.3,0.3,0.5,0.4,1,0.4c0.6,0,1.1-0.3,1.4-0.8v-4.4c0-1.2,0.5-1.8,1.7-1.8h0.4c0.5,0,1,0.2,1.2,0.4
		c0.3,0.3,0.4,0.7,0.4,1.4v7.5c0,0-0.1,0.1-0.2,0.2c-0.1,0.1-0.4,0.1-0.5,0.2s-0.4,0.1-0.7,0.1c-0.5,0-1-0.1-1.3-0.3
		c-0.4-0.3-0.6-0.6-0.8-1.2c-0.4,0.5-0.8,1-1.3,1.3S41.1,27,40.4,27c-0.6,0-1.1-0.1-1.6-0.4c-0.4-0.3-0.8-0.5-1.1-0.9
		c-0.3-0.4-0.4-0.8-0.6-1.2C37.1,24,37,23.6,37,23.1z M48.8,24.9v-7.5c0,0,0.1-0.1,0.2-0.2c0.1-0.1,0.4-0.1,0.5-0.2
		c0.3-0.1,0.4-0.1,0.7-0.1c0.5,0,1,0.1,1.3,0.4c0.3,0.3,0.6,0.7,0.8,1.3c0.2-0.5,0.4-1,0.9-1.3c0.4-0.4,0.9-0.4,1.4-0.4
		c0.6,0,1.1,0.2,1.5,0.5c0.4,0.4,0.5,0.9,0.5,1.4c0,0.3,0,0.5-0.1,0.8s-0.2,0.4-0.3,0.5c-0.1,0.2-0.3,0.3-0.3,0.4
		c-0.1,0.1-0.3,0.2-0.3,0.2s-0.1,0.1-0.2,0c-0.4-0.3-0.8-0.5-1.3-0.5c-1,0-1.7,0.8-1.7,2.4v2.3c0,1.2-0.5,1.8-1.7,1.8h-0.4
		c-0.5,0-1-0.2-1.2-0.4C48.9,25.9,48.8,25.5,48.8,24.9z"/>
	<path id="XMLID_32_" class="st1" d="M57.8,15.4c0,0,0-0.1,0.1-0.2c0.1-0.1,0.2-0.2,0.3-0.3c0.2-0.1,0.3-0.3,0.4-0.3
		c0.2-0.1,0.4-0.2,0.7-0.3c0.3-0.1,0.6-0.1,0.9-0.1c0.2,0,0.4,0,0.6,0.1c0.2,0.1,0.4,0.2,0.6,0.3c0.2,0.2,0.3,0.3,0.5,0.6
		c0.2,0.3,0.3,0.6,0.4,1l1,5.3l1.3-4.9c0.1-0.4,0.3-0.8,0.7-1.1c0.3-0.3,0.9-0.3,1.4-0.3c0.5,0,1,0.1,1.3,0.3s0.6,0.6,0.7,1.1
		l1.3,4.9l1-5.4c0.1-0.3,0.2-0.7,0.3-1c0.2-0.3,0.4-0.4,0.5-0.6c0.2-0.2,0.4-0.3,0.6-0.3c0.2-0.1,0.4-0.1,0.7-0.1s0.5,0,0.8,0.1
		c0.3,0.1,0.4,0.2,0.6,0.3c0.2,0.1,0.4,0.3,0.4,0.3c0.1,0.1,0.2,0.3,0.3,0.3c0.1,0.1,0.1,0.2,0.1,0.2l-2.8,9.8
		c-0.2,0.5-0.4,0.9-0.8,1.1c-0.3,0.3-0.9,0.4-1.5,0.4s-1.1-0.1-1.5-0.4c-0.3-0.3-0.6-0.6-0.8-1.1l-1.5-5.2l-1.5,5.2
		c-0.2,0.5-0.4,0.9-0.8,1.1s-0.9,0.4-1.5,0.4c-0.6,0-1.1-0.1-1.5-0.4c-0.4-0.2-0.6-0.6-0.8-1.1L57.8,15.4z M76.6,21.7
		c0-1.5,0.4-2.7,1.4-3.6c1-0.9,2.3-1.4,3.9-1.4c1.6,0,2.8,0.4,3.8,1.4c1,1,1.4,2.1,1.4,3.6c0,1.5-0.4,2.7-1.4,3.7
		c-1,0.9-2.2,1.4-3.8,1.4c-1.6,0-2.8-0.4-3.8-1.4C77.1,24.5,76.6,23.3,76.6,21.7z M79.7,21.7c0,0.6,0.2,1.1,0.6,1.6
		c0.3,0.4,0.9,0.6,1.5,0.6c0.6,0,1-0.2,1.5-0.6s0.6-1,0.6-1.6s-0.2-1.1-0.6-1.6s-0.9-0.6-1.5-0.6c-0.6,0-1.1,0.2-1.5,0.6
		C80,20.6,79.7,21.1,79.7,21.7z M88.3,24.9v-7.5c0,0,0.1-0.1,0.2-0.2c0.1-0.1,0.3-0.1,0.5-0.2c0.3-0.1,0.4-0.1,0.7-0.1
		c0.5,0,1,0.1,1.3,0.4c0.4,0.3,0.6,0.7,0.8,1.3c0.2-0.5,0.4-1,0.9-1.3c0.4-0.4,0.9-0.4,1.4-0.4c0.6,0,1.1,0.2,1.5,0.5
		c0.3,0.4,0.5,0.9,0.5,1.4c0,0.3,0,0.5-0.1,0.8c-0.1,0.3-0.2,0.4-0.3,0.5c-0.1,0.2-0.3,0.3-0.3,0.4c-0.1,0.1-0.3,0.2-0.3,0.2
		s-0.1,0.1-0.2,0c-0.4-0.3-0.8-0.5-1.3-0.5c-1,0-1.7,0.8-1.7,2.4v2.3c0,1.2-0.5,1.8-1.7,1.8H90c-0.5,0-1-0.2-1.2-0.4
		C88.5,25.9,88.3,25.5,88.3,24.9z M97.3,24.9V13.4c0,0,0.1-0.1,0.2-0.2c0.1-0.1,0.3-0.1,0.5-0.2c0.3-0.1,0.4-0.1,0.7-0.1
		c0.3,0,0.4,0,0.6,0.1c0.2,0.1,0.4,0.2,0.6,0.3s0.3,0.3,0.5,0.5c0.2,0.2,0.3,0.4,0.3,0.8c0.1,0.4,0.2,0.7,0.2,1.1v5.1l1.9-2.9
		c0.3-0.4,0.5-0.7,0.9-0.9c0.3-0.2,0.7-0.3,1-0.3c0.3,0,0.7,0.1,1.1,0.3c0.3,0.2,0.6,0.3,0.8,0.5s0.3,0.4,0.2,0.4l-2.5,3.7l2.8,3.9
		l0,0c0,0.1-0.1,0.2-0.3,0.4c-0.2,0.2-0.4,0.3-0.8,0.5c-0.3,0.2-0.7,0.3-1,0.3c-0.3,0-0.7-0.1-1.1-0.3c-0.3-0.2-0.7-0.4-0.9-0.9
		l-2-3v2.3c0,1.2-0.5,1.8-1.7,1.8H99c-0.5,0-1-0.2-1.2-0.4C97.4,25.9,97.3,25.5,97.3,24.9z"/>
</g>
</svg>
